<svg width="664" height="664" viewBox="0 0 664 664" fill="none" xmlns="http://www.w3.org/2000/svg">
<g clip-path="url(#clip0_4398_34290)">
<rect width="664" height="664" fill="#9701F4" fill-opacity="0.01"/>
<g clip-path="url(#clip1_4398_34290)">
<path d="M-240 100.5H8C16.5604 100.5 23.501 107.44 23.501 116V552C23.5008 560.56 16.5611 567.5 8.00098 567.5H-240C-248.56 567.5 -255.5 560.56 -255.5 552V116C-255.5 107.44 -248.56 100.5 -240 100.5Z" fill="url(#paint0_linear_4398_34290)" fill-opacity="0.03"/>
<path d="M-240 100.5H8C16.5604 100.5 23.501 107.44 23.501 116V552C23.5008 560.56 16.5611 567.5 8.00098 567.5H-240C-248.56 567.5 -255.5 560.56 -255.5 552V116C-255.5 107.44 -248.56 100.5 -240 100.5Z" stroke="#9701F4"/>
<g filter="url(#filter0_dd_4398_34290)">
<g clip-path="url(#clip2_4398_34290)">
<path d="M-248 118C-248 112.477 -243.523 108 -238 108H5.99999C11.5228 108 16 112.477 16 118V218C16 223.523 11.5228 228 6 228H-238C-243.523 228 -248 223.523 -248 218V118Z" fill="#9701F4" fill-opacity="0.05" shape-rendering="crispEdges"/>
</g>
</g>
<g filter="url(#filter1_dd_4398_34290)">
<g clip-path="url(#clip3_4398_34290)">
<path d="M-248 246C-248 240.477 -243.523 236 -238 236H5.99999C11.5228 236 16 240.477 16 246V366C16 371.523 11.5228 376 6 376H-238C-243.523 376 -248 371.523 -248 366V246Z" fill="#9701F4" fill-opacity="0.05" shape-rendering="crispEdges"/>
</g>
</g>
<g filter="url(#filter2_dd_4398_34290)">
<g clip-path="url(#clip4_4398_34290)">
<path d="M-248 394C-248 388.477 -243.523 384 -238 384H5.99999C11.5228 384 16 388.477 16 394V454C16 459.523 11.5228 464 6 464H-238C-243.523 464 -248 459.523 -248 454V394Z" fill="#9701F4" fill-opacity="0.05" shape-rendering="crispEdges"/>
</g>
</g>
</g>
<g clip-path="url(#clip5_4398_34290)">
<rect x="45" y="75" width="45" height="14" rx="2" fill="#9701F4"/>
<rect x="95" y="75" width="8" height="14" rx="2" fill="#9701F4"/>
<path d="M48 100.5H296C304.56 100.5 311.501 107.44 311.501 116V552C311.501 560.56 304.561 567.5 296.001 567.5H48C39.4397 567.5 32.5001 560.56 32.5 552V116C32.5 107.44 39.4396 100.5 48 100.5Z" fill="url(#paint1_linear_4398_34290)" fill-opacity="0.03"/>
<path d="M48 100.5H296C304.56 100.5 311.501 107.44 311.501 116V552C311.501 560.56 304.561 567.5 296.001 567.5H48C39.4397 567.5 32.5001 560.56 32.5 552V116C32.5 107.44 39.4396 100.5 48 100.5Z" stroke="#9701F4"/>
<g filter="url(#filter3_dd_4398_34290)">
<path d="M40 118C40 112.477 44.4772 108 50 108H294C299.523 108 304 112.477 304 118V278C304 283.523 299.523 288 294 288H50C44.4771 288 40 283.523 40 278V118Z" fill="#9701F4" fill-opacity="0.05" shape-rendering="crispEdges"/>
<rect x="52" y="124" width="138" height="14" rx="2" fill="#9701F4"/>
<rect x="52" y="154.5" width="48" height="10" rx="2" fill="#9701F4"/>
<rect x="52" y="181.5" width="59" height="10" rx="2" fill="#9701F4"/>
<rect x="52" y="208.5" width="35" height="10" rx="2" fill="#9701F4" fill-opacity="0.2"/>
<rect x="93" y="208.5" width="59" height="10" rx="2" fill="#9701F4"/>
<rect x="52" y="231.5" width="35" height="10" rx="2" fill="#9701F4" fill-opacity="0.2"/>
<rect x="93" y="231.5" width="48" height="10" rx="2" fill="#9701F4"/>
<rect x="52" y="252" width="51" height="24" rx="6" fill="#9701F4"/>
<rect x="111" y="252" width="51" height="24" rx="6" fill="#9701F4"/>
</g>
<g filter="url(#filter4_dd_4398_34290)">
<path d="M40 306C40 300.477 44.4772 296 50 296H294C299.523 296 304 300.477 304 306V466C304 471.523 299.523 476 294 476H50C44.4771 476 40 471.523 40 466V306Z" fill="#9701F4" fill-opacity="0.05" shape-rendering="crispEdges"/>
<rect x="52" y="312" width="138" height="14" rx="2" fill="#9701F4"/>
<rect x="52" y="342.5" width="48" height="10" rx="2" fill="#9701F4"/>
<rect x="52" y="369.5" width="59" height="10" rx="2" fill="#9701F4"/>
<rect x="52" y="396.5" width="35" height="10" rx="2" fill="#9701F4" fill-opacity="0.2"/>
<rect x="93" y="396.5" width="59" height="10" rx="2" fill="#9701F4"/>
<rect x="52" y="419.5" width="35" height="10" rx="2" fill="#9701F4" fill-opacity="0.2"/>
<rect x="93" y="419.5" width="45" height="10" rx="2" fill="#9701F4"/>
<rect x="52" y="440" width="51" height="24" rx="6" fill="#9701F4"/>
</g>
</g>
<g clip-path="url(#clip6_4398_34290)">
<rect x="333" y="75" width="45" height="14" rx="2" fill="#9701F4"/>
<rect x="383" y="75" width="8" height="14" rx="2" fill="#9701F4"/>
<rect x="320.5" y="100.5" width="279" height="467" rx="15.5" fill="url(#paint2_linear_4398_34290)" fill-opacity="0.03"/>
<rect x="320.5" y="100.5" width="279" height="467" rx="15.5" stroke="#9701F4" stroke-dasharray="4 4"/>
<g opacity="0.6">
<path d="M328 118C328 112.477 332.477 108 338 108H582C587.523 108 592 112.477 592 118V278C592 283.523 587.523 288 582 288H338C332.477 288 328 283.523 328 278V118Z" fill="#9701F4" fill-opacity="0.1"/>
</g>
</g>
<foreignObject x="218.992" y="94" width="322" height="238"><div xmlns="http://www.w3.org/1999/xhtml" style="backdrop-filter:blur(14px);clip-path:url(#bgblur_8_4398_34290_clip_path);height:100%;width:100%"></div></foreignObject><g data-figma-bg-blur-radius="28">
<g clip-path="url(#clip7_4398_34290)">
<path d="M247.992 133C247.992 127.477 252.469 123 257.992 123H501.993C507.516 123 511.993 127.477 511.993 133V293C511.993 298.523 507.516 303 501.993 303H257.992C252.469 303 247.992 298.523 247.992 293V133Z" fill="#9701F4" fill-opacity="0.05"/>
<g clip-path="url(#clip9_4398_34290)">
<rect x="259.992" y="139" width="180" height="14" rx="2" fill="#9701F4"/>
</g>
<g clip-path="url(#clip10_4398_34290)">
<rect x="259.992" y="169.5" width="48" height="10" rx="2" fill="#9701F4"/>
</g>
<g clip-path="url(#clip11_4398_34290)">
<rect x="259.992" y="196.5" width="59" height="10" rx="2" fill="#9701F4"/>
</g>
<g clip-path="url(#clip12_4398_34290)">
<rect x="259.992" y="223.5" width="35" height="10" rx="2" fill="#9701F4" fill-opacity="0.2"/>
<rect x="300.992" y="223.5" width="59" height="10" rx="2" fill="#9701F4"/>
</g>
<g clip-path="url(#clip13_4398_34290)">
<rect x="259.992" y="246.5" width="35" height="10" rx="2" fill="#9701F4" fill-opacity="0.2"/>
<rect x="300.992" y="246.5" width="45" height="10" rx="2" fill="#9701F4"/>
</g>
<rect x="259.992" y="267" width="66" height="24" rx="6" fill="#9701F4"/>
</g>
<path d="M501.993 122.5L502.533 122.514C508.081 122.795 512.493 127.382 512.493 133V293C512.493 298.799 507.791 303.5 501.992 303.5H257.992C252.193 303.5 247.492 298.799 247.492 293V133C247.492 127.201 252.193 122.5 257.992 122.5H501.993Z" stroke="#9701F4"/>
</g>
<rect x="410.975" y="262.612" width="55.4949" height="55.4949" rx="27.7474" transform="rotate(15 410.975 262.612)" fill="#9701F4" fill-opacity="0.4"/>
<rect x="410.975" y="262.612" width="55.4949" height="55.4949" rx="27.7474" transform="rotate(15 410.975 262.612)" stroke="#9701F4"/>
<circle cx="430.594" cy="296.596" r="10" fill="#9701F4"/>
</g>
<defs>
<filter id="filter0_dd_4398_34290" x="-252" y="106" width="272" height="128" filterUnits="userSpaceOnUse" color-interpolation-filters="sRGB">
<feFlood flood-opacity="0" result="BackgroundImageFix"/>
<feColorMatrix in="SourceAlpha" type="matrix" values="0 0 0 0 0 0 0 0 0 0 0 0 0 0 0 0 0 0 127 0" result="hardAlpha"/>
<feMorphology radius="1" operator="dilate" in="SourceAlpha" result="effect1_dropShadow_4398_34290"/>
<feOffset/>
<feComposite in2="hardAlpha" operator="out"/>
<feColorMatrix type="matrix" values="0 0 0 0 0 0 0 0 0 0 0 0 0 0 1 0 0 0 0.4 0"/>
<feBlend mode="normal" in2="BackgroundImageFix" result="effect1_dropShadow_4398_34290"/>
<feColorMatrix in="SourceAlpha" type="matrix" values="0 0 0 0 0 0 0 0 0 0 0 0 0 0 0 0 0 0 127 0" result="hardAlpha"/>
<feOffset dy="2"/>
<feGaussianBlur stdDeviation="2"/>
<feComposite in2="hardAlpha" operator="out"/>
<feColorMatrix type="matrix" values="0 0 0 0 0 0 0 0 0 0 0 0 0 0 1 0 0 0 0.02 0"/>
<feBlend mode="normal" in2="effect1_dropShadow_4398_34290" result="effect2_dropShadow_4398_34290"/>
<feBlend mode="normal" in="SourceGraphic" in2="effect2_dropShadow_4398_34290" result="shape"/>
</filter>
<filter id="filter1_dd_4398_34290" x="-252" y="234" width="272" height="148" filterUnits="userSpaceOnUse" color-interpolation-filters="sRGB">
<feFlood flood-opacity="0" result="BackgroundImageFix"/>
<feColorMatrix in="SourceAlpha" type="matrix" values="0 0 0 0 0 0 0 0 0 0 0 0 0 0 0 0 0 0 127 0" result="hardAlpha"/>
<feMorphology radius="1" operator="dilate" in="SourceAlpha" result="effect1_dropShadow_4398_34290"/>
<feOffset/>
<feComposite in2="hardAlpha" operator="out"/>
<feColorMatrix type="matrix" values="0 0 0 0 0 0 0 0 0 0 0 0 0 0 1 0 0 0 0.4 0"/>
<feBlend mode="normal" in2="BackgroundImageFix" result="effect1_dropShadow_4398_34290"/>
<feColorMatrix in="SourceAlpha" type="matrix" values="0 0 0 0 0 0 0 0 0 0 0 0 0 0 0 0 0 0 127 0" result="hardAlpha"/>
<feOffset dy="2"/>
<feGaussianBlur stdDeviation="2"/>
<feComposite in2="hardAlpha" operator="out"/>
<feColorMatrix type="matrix" values="0 0 0 0 0 0 0 0 0 0 0 0 0 0 1 0 0 0 0.02 0"/>
<feBlend mode="normal" in2="effect1_dropShadow_4398_34290" result="effect2_dropShadow_4398_34290"/>
<feBlend mode="normal" in="SourceGraphic" in2="effect2_dropShadow_4398_34290" result="shape"/>
</filter>
<filter id="filter2_dd_4398_34290" x="-252" y="382" width="272" height="88" filterUnits="userSpaceOnUse" color-interpolation-filters="sRGB">
<feFlood flood-opacity="0" result="BackgroundImageFix"/>
<feColorMatrix in="SourceAlpha" type="matrix" values="0 0 0 0 0 0 0 0 0 0 0 0 0 0 0 0 0 0 127 0" result="hardAlpha"/>
<feMorphology radius="1" operator="dilate" in="SourceAlpha" result="effect1_dropShadow_4398_34290"/>
<feOffset/>
<feComposite in2="hardAlpha" operator="out"/>
<feColorMatrix type="matrix" values="0 0 0 0 0 0 0 0 0 0 0 0 0 0 1 0 0 0 0.4 0"/>
<feBlend mode="normal" in2="BackgroundImageFix" result="effect1_dropShadow_4398_34290"/>
<feColorMatrix in="SourceAlpha" type="matrix" values="0 0 0 0 0 0 0 0 0 0 0 0 0 0 0 0 0 0 127 0" result="hardAlpha"/>
<feOffset dy="2"/>
<feGaussianBlur stdDeviation="2"/>
<feComposite in2="hardAlpha" operator="out"/>
<feColorMatrix type="matrix" values="0 0 0 0 0 0 0 0 0 0 0 0 0 0 1 0 0 0 0.02 0"/>
<feBlend mode="normal" in2="effect1_dropShadow_4398_34290" result="effect2_dropShadow_4398_34290"/>
<feBlend mode="normal" in="SourceGraphic" in2="effect2_dropShadow_4398_34290" result="shape"/>
</filter>
<filter id="filter3_dd_4398_34290" x="36" y="106" width="272" height="188" filterUnits="userSpaceOnUse" color-interpolation-filters="sRGB">
<feFlood flood-opacity="0" result="BackgroundImageFix"/>
<feColorMatrix in="SourceAlpha" type="matrix" values="0 0 0 0 0 0 0 0 0 0 0 0 0 0 0 0 0 0 127 0" result="hardAlpha"/>
<feMorphology radius="1" operator="dilate" in="SourceAlpha" result="effect1_dropShadow_4398_34290"/>
<feOffset/>
<feComposite in2="hardAlpha" operator="out"/>
<feColorMatrix type="matrix" values="0 0 0 0 0 0 0 0 0 0 0 0 0 0 1 0 0 0 0.4 0"/>
<feBlend mode="normal" in2="BackgroundImageFix" result="effect1_dropShadow_4398_34290"/>
<feColorMatrix in="SourceAlpha" type="matrix" values="0 0 0 0 0 0 0 0 0 0 0 0 0 0 0 0 0 0 127 0" result="hardAlpha"/>
<feOffset dy="2"/>
<feGaussianBlur stdDeviation="2"/>
<feComposite in2="hardAlpha" operator="out"/>
<feColorMatrix type="matrix" values="0 0 0 0 0 0 0 0 0 0 0 0 0 0 1 0 0 0 0.02 0"/>
<feBlend mode="normal" in2="effect1_dropShadow_4398_34290" result="effect2_dropShadow_4398_34290"/>
<feBlend mode="normal" in="SourceGraphic" in2="effect2_dropShadow_4398_34290" result="shape"/>
</filter>
<filter id="filter4_dd_4398_34290" x="36" y="294" width="272" height="188" filterUnits="userSpaceOnUse" color-interpolation-filters="sRGB">
<feFlood flood-opacity="0" result="BackgroundImageFix"/>
<feColorMatrix in="SourceAlpha" type="matrix" values="0 0 0 0 0 0 0 0 0 0 0 0 0 0 0 0 0 0 127 0" result="hardAlpha"/>
<feMorphology radius="1" operator="dilate" in="SourceAlpha" result="effect1_dropShadow_4398_34290"/>
<feOffset/>
<feComposite in2="hardAlpha" operator="out"/>
<feColorMatrix type="matrix" values="0 0 0 0 0.501961 0 0 0 0 0 0 0 0 0 0.501961 0 0 0 0.4 0"/>
<feBlend mode="normal" in2="BackgroundImageFix" result="effect1_dropShadow_4398_34290"/>
<feColorMatrix in="SourceAlpha" type="matrix" values="0 0 0 0 0 0 0 0 0 0 0 0 0 0 0 0 0 0 127 0" result="hardAlpha"/>
<feOffset dy="2"/>
<feGaussianBlur stdDeviation="2"/>
<feComposite in2="hardAlpha" operator="out"/>
<feColorMatrix type="matrix" values="0 0 0 0 0.501961 0 0 0 0 0 0 0 0 0 0.501961 0 0 0 0.02 0"/>
<feBlend mode="normal" in2="effect1_dropShadow_4398_34290" result="effect2_dropShadow_4398_34290"/>
<feBlend mode="normal" in="SourceGraphic" in2="effect2_dropShadow_4398_34290" result="shape"/>
</filter>
<clipPath id="bgblur_8_4398_34290_clip_path" transform="translate(-218.992 -94)"><path d="M247.992 133C247.992 127.477 252.469 123 257.992 123H501.993C507.516 123 511.993 127.477 511.993 133V293C511.993 298.523 507.516 303 501.993 303H257.992C252.469 303 247.992 298.523 247.992 293V133Z"/>
</clipPath><linearGradient id="paint0_linear_4398_34290" x1="-116" y1="100" x2="-116" y2="568" gradientUnits="userSpaceOnUse">
<stop stop-color="#F5F4F6"/>
</linearGradient>
<linearGradient id="paint1_linear_4398_34290" x1="172" y1="100" x2="172" y2="568" gradientUnits="userSpaceOnUse">
<stop stop-color="#F5F4F6"/>
</linearGradient>
<linearGradient id="paint2_linear_4398_34290" x1="460" y1="100" x2="460" y2="568" gradientUnits="userSpaceOnUse">
<stop stop-color="#F5F4F6"/>
</linearGradient>
<clipPath id="clip0_4398_34290">
<rect width="664" height="664" fill="white"/>
</clipPath>
<clipPath id="clip1_4398_34290">
<rect x="-256" y="64" width="280" height="504" rx="8" fill="white"/>
</clipPath>
<clipPath id="clip2_4398_34290">
<path d="M-248 118C-248 112.477 -243.523 108 -238 108H5.99999C11.5228 108 16 112.477 16 118V218C16 223.523 11.5228 228 6 228H-238C-243.523 228 -248 223.523 -248 218V118Z" fill="white"/>
</clipPath>
<clipPath id="clip3_4398_34290">
<path d="M-248 246C-248 240.477 -243.523 236 -238 236H5.99999C11.5228 236 16 240.477 16 246V366C16 371.523 11.5228 376 6 376H-238C-243.523 376 -248 371.523 -248 366V246Z" fill="white"/>
</clipPath>
<clipPath id="clip4_4398_34290">
<path d="M-248 394C-248 388.477 -243.523 384 -238 384H5.99999C11.5228 384 16 388.477 16 394V454C16 459.523 11.5228 464 6 464H-238C-243.523 464 -248 459.523 -248 454V394Z" fill="white"/>
</clipPath>
<clipPath id="clip5_4398_34290">
<rect x="32" y="64" width="280" height="504" rx="8" fill="white"/>
</clipPath>
<clipPath id="clip6_4398_34290">
<rect x="320" y="64" width="280" height="504" rx="8" fill="white"/>
</clipPath>
<clipPath id="clip7_4398_34290">
<path d="M247.992 133C247.992 127.477 252.469 123 257.992 123H501.993C507.516 123 511.993 127.477 511.993 133V293C511.993 298.523 507.516 303 501.993 303H257.992C252.469 303 247.992 298.523 247.992 293V133Z" fill="white"/>
</clipPath>
<clipPath id="clip9_4398_34290">
<rect width="240" height="22" fill="white" transform="translate(259.992 135)"/>
</clipPath>
<clipPath id="clip10_4398_34290">
<rect width="240" height="15" fill="white" transform="translate(259.992 167)"/>
</clipPath>
<clipPath id="clip11_4398_34290">
<rect width="240" height="15" fill="white" transform="translate(259.992 194)"/>
</clipPath>
<clipPath id="clip12_4398_34290">
<rect width="240" height="15" fill="white" transform="translate(259.992 221)"/>
</clipPath>
<clipPath id="clip13_4398_34290">
<rect width="240" height="15" fill="white" transform="translate(259.992 244)"/>
</clipPath>
</defs>
</svg>
