<svg width="664" height="664" viewBox="0 0 664 664" fill="none" xmlns="http://www.w3.org/2000/svg" xmlns:xlink="http://www.w3.org/1999/xlink">
<g clip-path="url(#clip0_4419_62606)">
<rect width="664" height="664" fill="#373737" fill-opacity="0.01"/>
<g clip-path="url(#clip1_4419_62606)">
<g clip-path="url(#clip2_4419_62606)">
<path d="M-240 100.5H8C16.5604 100.5 23.501 107.44 23.501 116V552C23.5008 560.56 16.5611 567.5 8.00098 567.5H-240C-248.56 567.5 -255.5 560.56 -255.5 552V116C-255.5 107.44 -248.56 100.5 -240 100.5Z" fill="url(#paint0_linear_4419_62606)" fill-opacity="0.03"/>
<path d="M-240 100.5H8C16.5604 100.5 23.501 107.44 23.501 116V552C23.5008 560.56 16.5611 567.5 8.00098 567.5H-240C-248.56 567.5 -255.5 560.56 -255.5 552V116C-255.5 107.44 -248.56 100.5 -240 100.5Z" stroke="#373737"/>
<g filter="url(#filter0_dd_4419_62606)">
<g clip-path="url(#clip3_4419_62606)">
<path d="M-248 118C-248 112.477 -243.523 108 -238 108H5.99999C11.5228 108 16 112.477 16 118V218C16 223.523 11.5228 228 6 228H-238C-243.523 228 -248 223.523 -248 218V118Z" fill="#373737" fill-opacity="0.05" shape-rendering="crispEdges"/>
</g>
</g>
<g filter="url(#filter1_dd_4419_62606)">
<g clip-path="url(#clip4_4419_62606)">
<path d="M-248 246C-248 240.477 -243.523 236 -238 236H5.99999C11.5228 236 16 240.477 16 246V366C16 371.523 11.5228 376 6 376H-238C-243.523 376 -248 371.523 -248 366V246Z" fill="#373737" fill-opacity="0.05" shape-rendering="crispEdges"/>
</g>
</g>
<g filter="url(#filter2_dd_4419_62606)">
<g clip-path="url(#clip5_4419_62606)">
<path d="M-248 394C-248 388.477 -243.523 384 -238 384H5.99999C11.5228 384 16 388.477 16 394V454C16 459.523 11.5228 464 6 464H-238C-243.523 464 -248 459.523 -248 454V394Z" fill="#373737" fill-opacity="0.05" shape-rendering="crispEdges"/>
</g>
</g>
</g>
<g clip-path="url(#clip6_4419_62606)">
<rect x="45" y="75" width="45" height="14" rx="2" fill="#373737"/>
<rect x="95" y="75" width="8" height="14" rx="2" fill="#373737"/>
<g clip-path="url(#clip7_4419_62606)">
<path d="M48 100.5H296C304.56 100.5 311.501 107.44 311.501 116V552C311.501 560.56 304.561 567.5 296.001 567.5H48C39.4397 567.5 32.5001 560.56 32.5 552V116C32.5 107.44 39.4396 100.5 48 100.5Z" fill="url(#paint1_linear_4419_62606)" fill-opacity="0.03"/>
<path d="M48 100.5H296C304.56 100.5 311.501 107.44 311.501 116V552C311.501 560.56 304.561 567.5 296.001 567.5H48C39.4397 567.5 32.5001 560.56 32.5 552V116C32.5 107.44 39.4396 100.5 48 100.5Z" stroke="#373737"/>
<g filter="url(#filter3_dd_4419_62606)">
<path d="M40 118C40 112.477 44.4772 108 50 108H294C299.523 108 304 112.477 304 118V278C304 283.523 299.523 288 294 288H50C44.4771 288 40 283.523 40 278V118Z" fill="#373737" fill-opacity="0.05" shape-rendering="crispEdges"/>
<rect x="52" y="124" width="138" height="14" rx="2" fill="#373737"/>
<rect x="52" y="154.5" width="48" height="10" rx="2" fill="#373737"/>
<rect x="52" y="181.5" width="59" height="10" rx="2" fill="#373737"/>
<rect x="52" y="208.5" width="35" height="10" rx="2" fill="#373737" fill-opacity="0.2"/>
<rect x="93" y="208.5" width="59" height="10" rx="2" fill="#373737"/>
<rect x="52" y="231.5" width="35" height="10" rx="2" fill="#373737" fill-opacity="0.2"/>
<rect x="93" y="231.5" width="48" height="10" rx="2" fill="#373737"/>
<rect x="52" y="252" width="51" height="24" rx="6" fill="#373737"/>
<rect x="111" y="252" width="51" height="24" rx="6" fill="#373737"/>
</g>
<g filter="url(#filter4_dd_4419_62606)">
<path d="M40 306C40 300.477 44.4772 296 50 296H294C299.523 296 304 300.477 304 306V466C304 471.523 299.523 476 294 476H50C44.4771 476 40 471.523 40 466V306Z" fill="#373737" fill-opacity="0.05" shape-rendering="crispEdges"/>
<rect x="52" y="312" width="138" height="14" rx="2" fill="#373737"/>
<rect x="52" y="342.5" width="48" height="10" rx="2" fill="#373737"/>
<rect x="52" y="369.5" width="59" height="10" rx="2" fill="#373737"/>
<rect x="52" y="396.5" width="35" height="10" rx="2" fill="#373737" fill-opacity="0.2"/>
<rect x="93" y="396.5" width="59" height="10" rx="2" fill="#373737"/>
<rect x="52" y="419.5" width="35" height="10" rx="2" fill="#373737" fill-opacity="0.2"/>
<rect x="93" y="419.5" width="45" height="10" rx="2" fill="#373737"/>
<rect x="52" y="440" width="51" height="24" rx="6" fill="#373737"/>
</g>
</g>
<rect x="32.5" y="100.5" width="279" height="467" stroke="#373737" stroke-dasharray="2 2"/>
</g>
<g clip-path="url(#clip8_4419_62606)">
<rect x="333" y="75" width="45" height="14" rx="2" fill="#373737"/>
<rect x="383" y="75" width="8" height="14" rx="2" fill="#373737"/>
<path d="M599 100V100.5H599.501V101H600.001V103H599.501V105H600.001V107H599.501V109H600.001V111H599.501V113H600.001V115H599.501V117H600.001V119H599.501V121H600.001V123H599.501V125H600.001V127H599.501V129H600.001V131H599.501V133H600.001V135H599.501V137H600.001V139H599.501V141H600.001V143H599.501V145H600.001V147H599.501V149H600.001V151H599.501V153H600.001V155H599.501V157H600.001V159H599.501V161H600.001V163H599.501V165H600.001V167H599.501V169H600.001V171H599.501V173H600.001V175H599.501V177H600.001V179H599.501V181H600.001V183H599.501V185H600.001V187H599.501V189H600.001V191H599.501V193H600.001V195H599.501V197H600.001V199H599.501V201H600.001V203H599.501V205H600.001V207H599.501V209H600.001V211H599.501V213H600.001V215H599.501V217H600.001V219H599.501V221H600.001V223H599.501V225H600.001V227H599.501V229H600.001V231H599.501V233H600.001V235H599.501V237H600.001V239H599.501V241H600.001V243H599.501V245H600.001V247H599.501V249H600.001V251H599.501V253H600.001V255H599.501V257H600.001V259H599.501V261H600.001V263H599.501V265H600.001V267H599.501V269H600.001V271H599.501V273H600.001V275H599.501V277H600.001V279H599.501V281H600.001V283H599.501V285H600.001V287H599.501V289H600.001V291H599.501V293H600.001V295H599.501V297H600.001V299H599.501V301H600.001V303H599.501V305H600.001V307H599.501V309H600.001V311H599.501V313H600.001V315H599.501V317H600.001V319H599.501V321H600.001V323H599.501V325H600.001V327H599.501V329H600.001V331H599.501V333H600.001V335H599.501V337H600.001V339H599.501V341H600.001V343H599.501V345H600.001V347H599.501V349H600.001V351H599.501V353H600.001V355H599.501V357H600.001V359H599.501V361H600.001V363H599.501V365H600.001V367H599.501V369H600.001V371H599.501V373H600.001V375H599.501V377H600.001V379H599.501V381H600.001V383H599.501V385H600.001V387H599.501V389H600.001V391H599.501V393H600.001V395H599.501V397H600.001V399H599.501V401H600.001V403H599.501V405H600.001V407H599.501V409H600.001V411H599.501V413H600.001V415H599.501V417H600.001V419H599.501V421H600.001V423H599.501V425H600.001V427H599.501V429H600.001V431H599.501V433H600.001V435H599.501V437H600.001V439H599.501V441H600.001V443H599.501V445H600.001V447H599.501V449H600.001V451H599.501V453H600.001V455H599.501V457H600.001V459H599.501V461H600.001V463H599.501V465H600.001V467H599.501V469H600.001V471H599.501V473H600.001V475H599.501V477H600.001V479H599.501V481H600.001V483H599.501V485H600.001V487H599.501V489H600.001V491H599.501V493H600.001V495H599.501V497H600.001V499H599.501V501H600.001V503H599.501V505H600.001V507H599.501V509H600.001V511H599.501V513H600.001V515H599.501V517H600.001V519H599.501V521H600.001V523H599.501V525H600.001V527H599.501V529H600.001V531H599.501V533H600.001V535H599.501V537H600.001V539H599.501V541H600.001V543H599.501V545H600.001V547H599.501V549H600.001V551H599.501V553H600.001V555H599.501V557H600.001V559H599.501V561H600.001V563H599.501V565H600.001V567H599.501V567.5H599V568H597V567.5H595V568H593V567.5H591V568H589V567.5H587V568H585V567.5H583V568H581V567.5H579V568H577V567.5H575V568H573V567.5H571V568H569V567.5H567V568H565V567.5H563V568H561V567.5H559V568H557V567.5H555V568H553V567.5H551V568H549V567.5H547V568H545V567.5H543V568H541V567.5H539V568H537V567.5H535V568H533V567.5H531V568H529V567.5H527V568H525V567.5H523V568H521V567.5H519V568H517V567.5H515V568H513V567.5H511V568H509V567.5H507V568H505V567.5H503V568H501V567.5H499V568H497V567.5H495V568H493V567.5H491V568H489V567.5H487V568H485V567.5H483V568H481V567.5H479V568H477V567.5H475V568H473V567.5H471V568H469V567.5H467V568H465V567.5H463V568H461V567.5H459V568H457V567.5H455V568H453V567.5H451V568H449V567.5H447V568H445V567.5H443V568H441V567.5H439V568H437V567.5H435V568H433V567.5H431V568H429V567.5H427V568H425V567.5H423V568H421V567.5H419V568H417V567.5H415V568H413V567.5H411V568H409V567.5H407V568H405V567.5H403V568H401V567.5H399V568H397V567.5H395V568H393V567.5H391V568H389V567.5H387V568H385V567.5H383V568H381V567.5H379V568H377V567.5H375V568H373V567.5H371V568H369V567.5H367V568H365V567.5H363V568H361V567.5H359V568H357V567.5H355V568H353V567.5H351V568H349V567.5H347V568H345V567.5H343V568H341V567.5H339V568H337V567.5H335V568H333V567.5H331V568H329V567.5H327V568H325V567.5H323V568H321V567.5H320.5V567H320V565H320.5V563H320V561H320.5V559H320V557H320.5V555H320V553H320.5V551H320V549H320.5V547H320V545H320.5V543H320V541H320.5V539H320V537H320.5V535H320V533H320.5V531H320V529H320.5V527H320V525H320.5V523H320V521H320.5V519H320V517H320.5V515H320V513H320.5V511H320V509H320.5V507H320V505H320.5V503H320V501H320.5V499H320V497H320.5V495H320V493H320.5V491H320V489H320.5V487H320V485H320.5V483H320V481H320.5V479H320V477H320.5V475H320V473H320.5V471H320V469H320.5V467H320V465H320.5V463H320V461H320.5V459H320V457H320.5V455H320V453H320.5V451H320V449H320.5V447H320V445H320.5V443H320V441H320.5V439H320V437H320.5V435H320V433H320.5V431H320V429H320.5V427H320V425H320.5V423H320V421H320.5V419H320V417H320.5V415H320V413H320.5V411H320V409H320.5V407H320V405H320.5V403H320V401H320.5V399H320V397H320.5V395H320V393H320.5V391H320V389H320.5V387H320V385H320.5V383H320V381H320.5V379H320V377H320.5V375H320V373H320.5V371H320V369H320.5V367H320V365H320.5V363H320V361H320.5V359H320V357H320.5V355H320V353H320.5V351H320V349H320.5V347H320V345H320.5V343H320V341H320.5V339H320V337H320.5V335H320V333H320.5V331H320V329H320.5V327H320V325H320.5V323H320V321H320.5V319H320V317H320.5V315H320V313H320.5V311H320V309H320.5V307H320V305H320.5V303H320V301H320.5V299H320V297H320.5V295H320V293H320.5V291H320V289H320.5V287H320V285H320.5V283H320V281H320.5V279H320V277H320.5V275H320V273H320.5V271H320V269H320.5V267H320V265H320.5V263H320V261H320.5V259H320V257H320.5V255H320V253H320.5V251H320V249H320.5V247H320V245H320.5V243H320V241H320.5V239H320V237H320.5V235H320V233H320.5V231H320V229H320.5V227H320V225H320.5V223H320V221H320.5V219H320V217H320.5V215H320V213H320.5V211H320V209H320.5V207H320V205H320.5V203H320V201H320.5V199H320V197H320.5V195H320V193H320.5V191H320V189H320.5V187H320V185H320.5V183H320V181H320.5V179H320V177H320.5V175H320V173H320.5V171H320V169H320.5V167H320V165H320.5V163H320V161H320.5V159H320V157H320.5V155H320V153H320.5V151H320V149H320.5V147H320V145H320.5V143H320V141H320.5V139H320V137H320.5V135H320V133H320.5V131H320V129H320.5V127H320V125H320.5V123H320V121H320.5V119H320V117H320.5V115H320V113H320.5V111H320V109H320.5V107H320V105H320.5V103H320V101H320.5V100.5H321V100H323V100.5H325V100H327V100.5H329V100H331V100.5H333V100H335V100.5H337V100H339V100.5H341V100H343V100.5H345V100H347V100.5H349V100H351V100.5H353V100H355V100.5H357V100H359V100.5H361V100H363V100.5H365V100H367V100.5H369V100H371V100.5H373V100H375V100.5H377V100H379V100.5H381V100H383V100.5H385V100H387V100.5H389V100H391V100.5H393V100H395V100.5H397V100H399V100.5H401V100H403V100.5H405V100H407V100.5H409V100H411V100.5H413V100H415V100.5H417V100H419V100.5H421V100H423V100.5H425V100H427V100.5H429V100H431V100.5H433V100H435V100.5H437V100H439V100.5H441V100H443V100.5H445V100H447V100.5H449V100H451V100.5H453V100H455V100.5H457V100H459V100.5H461V100H463V100.5H465V100H467V100.5H469V100H471V100.5H473V100H475V100.5H477V100H479V100.5H481V100H483V100.5H485V100H487V100.5H489V100H491V100.5H493V100H495V100.5H497V100H499V100.5H501V100H503V100.5H505V100H507V100.5H509V100H511V100.5H513V100H515V100.5H517V100H519V100.5H521V100H523V100.5H525V100H527V100.5H529V100H531V100.5H533V100H535V100.5H537V100H539V100.5H541V100H543V100.5H545V100H547V100.5H549V100H551V100.5H553V100H555V100.5H557V100H559V100.5H561V100H563V100.5H565V100H567V100.5H569V100H571V100.5H573V100H575V100.5H577V100H579V100.5H581V100H583V100.5H585V100H587V100.5H589V100H591V100.5H593V100H595V100.5H597V100H599Z" fill="url(#pattern0_4419_62606)"/>
<path d="M599 100V100.5H599.501V101H600.001V103H599.501V105H600.001V107H599.501V109H600.001V111H599.501V113H600.001V115H599.501V117H600.001V119H599.501V121H600.001V123H599.501V125H600.001V127H599.501V129H600.001V131H599.501V133H600.001V135H599.501V137H600.001V139H599.501V141H600.001V143H599.501V145H600.001V147H599.501V149H600.001V151H599.501V153H600.001V155H599.501V157H600.001V159H599.501V161H600.001V163H599.501V165H600.001V167H599.501V169H600.001V171H599.501V173H600.001V175H599.501V177H600.001V179H599.501V181H600.001V183H599.501V185H600.001V187H599.501V189H600.001V191H599.501V193H600.001V195H599.501V197H600.001V199H599.501V201H600.001V203H599.501V205H600.001V207H599.501V209H600.001V211H599.501V213H600.001V215H599.501V217H600.001V219H599.501V221H600.001V223H599.501V225H600.001V227H599.501V229H600.001V231H599.501V233H600.001V235H599.501V237H600.001V239H599.501V241H600.001V243H599.501V245H600.001V247H599.501V249H600.001V251H599.501V253H600.001V255H599.501V257H600.001V259H599.501V261H600.001V263H599.501V265H600.001V267H599.501V269H600.001V271H599.501V273H600.001V275H599.501V277H600.001V279H599.501V281H600.001V283H599.501V285H600.001V287H599.501V289H600.001V291H599.501V293H600.001V295H599.501V297H600.001V299H599.501V301H600.001V303H599.501V305H600.001V307H599.501V309H600.001V311H599.501V313H600.001V315H599.501V317H600.001V319H599.501V321H600.001V323H599.501V325H600.001V327H599.501V329H600.001V331H599.501V333H600.001V335H599.501V337H600.001V339H599.501V341H600.001V343H599.501V345H600.001V347H599.501V349H600.001V351H599.501V353H600.001V355H599.501V357H600.001V359H599.501V361H600.001V363H599.501V365H600.001V367H599.501V369H600.001V371H599.501V373H600.001V375H599.501V377H600.001V379H599.501V381H600.001V383H599.501V385H600.001V387H599.501V389H600.001V391H599.501V393H600.001V395H599.501V397H600.001V399H599.501V401H600.001V403H599.501V405H600.001V407H599.501V409H600.001V411H599.501V413H600.001V415H599.501V417H600.001V419H599.501V421H600.001V423H599.501V425H600.001V427H599.501V429H600.001V431H599.501V433H600.001V435H599.501V437H600.001V439H599.501V441H600.001V443H599.501V445H600.001V447H599.501V449H600.001V451H599.501V453H600.001V455H599.501V457H600.001V459H599.501V461H600.001V463H599.501V465H600.001V467H599.501V469H600.001V471H599.501V473H600.001V475H599.501V477H600.001V479H599.501V481H600.001V483H599.501V485H600.001V487H599.501V489H600.001V491H599.501V493H600.001V495H599.501V497H600.001V499H599.501V501H600.001V503H599.501V505H600.001V507H599.501V509H600.001V511H599.501V513H600.001V515H599.501V517H600.001V519H599.501V521H600.001V523H599.501V525H600.001V527H599.501V529H600.001V531H599.501V533H600.001V535H599.501V537H600.001V539H599.501V541H600.001V543H599.501V545H600.001V547H599.501V549H600.001V551H599.501V553H600.001V555H599.501V557H600.001V559H599.501V561H600.001V563H599.501V565H600.001V567H599.501V567.5H599V568H597V567.5H595V568H593V567.5H591V568H589V567.5H587V568H585V567.5H583V568H581V567.5H579V568H577V567.5H575V568H573V567.5H571V568H569V567.5H567V568H565V567.5H563V568H561V567.5H559V568H557V567.5H555V568H553V567.5H551V568H549V567.5H547V568H545V567.5H543V568H541V567.5H539V568H537V567.5H535V568H533V567.5H531V568H529V567.5H527V568H525V567.5H523V568H521V567.5H519V568H517V567.5H515V568H513V567.5H511V568H509V567.5H507V568H505V567.5H503V568H501V567.5H499V568H497V567.5H495V568H493V567.5H491V568H489V567.5H487V568H485V567.5H483V568H481V567.5H479V568H477V567.5H475V568H473V567.5H471V568H469V567.5H467V568H465V567.5H463V568H461V567.5H459V568H457V567.5H455V568H453V567.5H451V568H449V567.5H447V568H445V567.5H443V568H441V567.5H439V568H437V567.5H435V568H433V567.5H431V568H429V567.5H427V568H425V567.5H423V568H421V567.5H419V568H417V567.5H415V568H413V567.5H411V568H409V567.5H407V568H405V567.5H403V568H401V567.5H399V568H397V567.5H395V568H393V567.5H391V568H389V567.5H387V568H385V567.5H383V568H381V567.5H379V568H377V567.5H375V568H373V567.5H371V568H369V567.5H367V568H365V567.5H363V568H361V567.5H359V568H357V567.5H355V568H353V567.5H351V568H349V567.5H347V568H345V567.5H343V568H341V567.5H339V568H337V567.5H335V568H333V567.5H331V568H329V567.5H327V568H325V567.5H323V568H321V567.5H320.5V567H320V565H320.5V563H320V561H320.5V559H320V557H320.5V555H320V553H320.5V551H320V549H320.5V547H320V545H320.5V543H320V541H320.5V539H320V537H320.5V535H320V533H320.5V531H320V529H320.5V527H320V525H320.5V523H320V521H320.5V519H320V517H320.5V515H320V513H320.5V511H320V509H320.5V507H320V505H320.5V503H320V501H320.5V499H320V497H320.5V495H320V493H320.5V491H320V489H320.5V487H320V485H320.5V483H320V481H320.5V479H320V477H320.5V475H320V473H320.5V471H320V469H320.5V467H320V465H320.5V463H320V461H320.5V459H320V457H320.5V455H320V453H320.5V451H320V449H320.5V447H320V445H320.5V443H320V441H320.5V439H320V437H320.5V435H320V433H320.5V431H320V429H320.5V427H320V425H320.5V423H320V421H320.5V419H320V417H320.5V415H320V413H320.5V411H320V409H320.5V407H320V405H320.5V403H320V401H320.5V399H320V397H320.5V395H320V393H320.5V391H320V389H320.5V387H320V385H320.5V383H320V381H320.5V379H320V377H320.5V375H320V373H320.5V371H320V369H320.5V367H320V365H320.5V363H320V361H320.5V359H320V357H320.5V355H320V353H320.5V351H320V349H320.5V347H320V345H320.5V343H320V341H320.5V339H320V337H320.5V335H320V333H320.5V331H320V329H320.5V327H320V325H320.5V323H320V321H320.5V319H320V317H320.5V315H320V313H320.5V311H320V309H320.5V307H320V305H320.5V303H320V301H320.5V299H320V297H320.5V295H320V293H320.5V291H320V289H320.5V287H320V285H320.5V283H320V281H320.5V279H320V277H320.5V275H320V273H320.5V271H320V269H320.5V267H320V265H320.5V263H320V261H320.5V259H320V257H320.5V255H320V253H320.5V251H320V249H320.5V247H320V245H320.5V243H320V241H320.5V239H320V237H320.5V235H320V233H320.5V231H320V229H320.5V227H320V225H320.5V223H320V221H320.5V219H320V217H320.5V215H320V213H320.5V211H320V209H320.5V207H320V205H320.5V203H320V201H320.5V199H320V197H320.5V195H320V193H320.5V191H320V189H320.5V187H320V185H320.5V183H320V181H320.5V179H320V177H320.5V175H320V173H320.5V171H320V169H320.5V167H320V165H320.5V163H320V161H320.5V159H320V157H320.5V155H320V153H320.5V151H320V149H320.5V147H320V145H320.5V143H320V141H320.5V139H320V137H320.5V135H320V133H320.5V131H320V129H320.5V127H320V125H320.5V123H320V121H320.5V119H320V117H320.5V115H320V113H320.5V111H320V109H320.5V107H320V105H320.5V103H320V101H320.5V100.5H321V100H323V100.5H325V100H327V100.5H329V100H331V100.5H333V100H335V100.5H337V100H339V100.5H341V100H343V100.5H345V100H347V100.5H349V100H351V100.5H353V100H355V100.5H357V100H359V100.5H361V100H363V100.5H365V100H367V100.5H369V100H371V100.5H373V100H375V100.5H377V100H379V100.5H381V100H383V100.5H385V100H387V100.5H389V100H391V100.5H393V100H395V100.5H397V100H399V100.5H401V100H403V100.5H405V100H407V100.5H409V100H411V100.5H413V100H415V100.5H417V100H419V100.5H421V100H423V100.5H425V100H427V100.5H429V100H431V100.5H433V100H435V100.5H437V100H439V100.5H441V100H443V100.5H445V100H447V100.5H449V100H451V100.5H453V100H455V100.5H457V100H459V100.5H461V100H463V100.5H465V100H467V100.5H469V100H471V100.5H473V100H475V100.5H477V100H479V100.5H481V100H483V100.5H485V100H487V100.5H489V100H491V100.5H493V100H495V100.5H497V100H499V100.5H501V100H503V100.5H505V100H507V100.5H509V100H511V100.5H513V100H515V100.5H517V100H519V100.5H521V100H523V100.5H525V100H527V100.5H529V100H531V100.5H533V100H535V100.5H537V100H539V100.5H541V100H543V100.5H545V100H547V100.5H549V100H551V100.5H553V100H555V100.5H557V100H559V100.5H561V100H563V100.5H565V100H567V100.5H569V100H571V100.5H573V100H575V100.5H577V100H579V100.5H581V100H583V100.5H585V100H587V100.5H589V100H591V100.5H593V100H595V100.5H597V100H599Z" stroke="#373737" stroke-dasharray="2 2"/>
<rect x="320.5" y="100.5" width="279" height="467" rx="15.5" fill="url(#paint2_linear_4419_62606)" fill-opacity="0.03"/>
<rect x="320.5" y="100.5" width="279" height="467" rx="15.5" stroke="#373737" stroke-dasharray="4 4"/>
<g opacity="0.6">
<path d="M328 118C328 112.477 332.477 108 338 108H582C587.523 108 592 112.477 592 118V278C592 283.523 587.523 288 582 288H338C332.477 288 328 283.523 328 278V118Z" fill="#373737" fill-opacity="0.1"/>
</g>
</g>
<foreignObject x="206.992" y="82" width="346" height="262"><div xmlns="http://www.w3.org/1999/xhtml" style="backdrop-filter:blur(14px);clip-path:url(#bgblur_11_4419_62606_clip_path);height:100%;width:100%"></div></foreignObject><g filter="url(#filter5_d_4419_62606)" data-figma-bg-blur-radius="28">
<g clip-path="url(#clip10_4419_62606)">
<path d="M247.992 133C247.992 127.477 252.469 123 257.992 123H501.993C507.516 123 511.993 127.477 511.993 133V293C511.993 298.523 507.516 303 501.993 303H257.992C252.469 303 247.992 298.523 247.992 293V133Z" fill="#373737" fill-opacity="0.05" shape-rendering="crispEdges"/>
<g clip-path="url(#clip12_4419_62606)">
<rect x="259.992" y="139" width="180" height="14" rx="2" fill="#373737"/>
</g>
<g clip-path="url(#clip13_4419_62606)">
<rect x="259.992" y="169.5" width="48" height="10" rx="2" fill="#373737"/>
</g>
<g clip-path="url(#clip14_4419_62606)">
<rect x="259.992" y="196.5" width="59" height="10" rx="2" fill="#373737"/>
</g>
<g clip-path="url(#clip15_4419_62606)">
<rect x="259.992" y="223.5" width="35" height="10" rx="2" fill="#373737" fill-opacity="0.2"/>
<rect x="300.992" y="223.5" width="59" height="10" rx="2" fill="#373737"/>
</g>
<g clip-path="url(#clip16_4419_62606)">
<rect x="259.992" y="246.5" width="35" height="10" rx="2" fill="#373737" fill-opacity="0.2"/>
<rect x="300.992" y="246.5" width="45" height="10" rx="2" fill="#373737"/>
</g>
<rect x="259.992" y="267" width="66" height="24" rx="6" fill="#373737"/>
</g>
<path d="M501.993 122.5L502.533 122.514C508.081 122.795 512.493 127.382 512.493 133V293C512.493 298.799 507.791 303.5 501.992 303.5H257.992C252.193 303.5 247.492 298.799 247.492 293V133C247.492 127.201 252.193 122.5 257.992 122.5H501.993Z" stroke="#D6D6D6" shape-rendering="crispEdges"/>
</g>
<rect x="410.975" y="262.612" width="55.4949" height="55.4949" rx="27.7474" transform="rotate(15 410.975 262.612)" fill="#373737" fill-opacity="0.4"/>
<rect x="410.975" y="262.612" width="55.4949" height="55.4949" rx="27.7474" transform="rotate(15 410.975 262.612)" stroke="#373737"/>
<circle cx="430.594" cy="296.596" r="10" fill="#373737"/>
<line x1="512.5" y1="-264.5" x2="512.5" y2="698.5" stroke="#373737" stroke-linecap="round" stroke-dasharray="1 4"/>
<line x1="247.5" y1="-264.5" x2="247.5" y2="698.5" stroke="#373737" stroke-linecap="round" stroke-dasharray="1 4"/>
<line x1="-94.5" y1="122.5" x2="846.5" y2="122.5" stroke="#373737" stroke-linecap="round" stroke-dasharray="1 4"/>
<line x1="-94.5" y1="303.5" x2="846.5" y2="303.5" stroke="#373737" stroke-linecap="round" stroke-dasharray="1 4"/>
</g>
</g>
<defs>
<filter id="filter0_dd_4419_62606" x="-252" y="106" width="272" height="128" filterUnits="userSpaceOnUse" color-interpolation-filters="sRGB">
<feFlood flood-opacity="0" result="BackgroundImageFix"/>
<feColorMatrix in="SourceAlpha" type="matrix" values="0 0 0 0 0 0 0 0 0 0 0 0 0 0 0 0 0 0 127 0" result="hardAlpha"/>
<feMorphology radius="1" operator="dilate" in="SourceAlpha" result="effect1_dropShadow_4419_62606"/>
<feOffset/>
<feComposite in2="hardAlpha" operator="out"/>
<feColorMatrix type="matrix" values="0 0 0 0 0.215686 0 0 0 0 0.215686 0 0 0 0 0.215686 0 0 0 0.6 0"/>
<feBlend mode="normal" in2="BackgroundImageFix" result="effect1_dropShadow_4419_62606"/>
<feColorMatrix in="SourceAlpha" type="matrix" values="0 0 0 0 0 0 0 0 0 0 0 0 0 0 0 0 0 0 127 0" result="hardAlpha"/>
<feOffset dy="2"/>
<feGaussianBlur stdDeviation="2"/>
<feComposite in2="hardAlpha" operator="out"/>
<feColorMatrix type="matrix" values="0 0 0 0 0.215686 0 0 0 0 0.215686 0 0 0 0 0.215686 0 0 0 0.02 0"/>
<feBlend mode="normal" in2="effect1_dropShadow_4419_62606" result="effect2_dropShadow_4419_62606"/>
<feBlend mode="normal" in="SourceGraphic" in2="effect2_dropShadow_4419_62606" result="shape"/>
</filter>
<filter id="filter1_dd_4419_62606" x="-252" y="234" width="272" height="148" filterUnits="userSpaceOnUse" color-interpolation-filters="sRGB">
<feFlood flood-opacity="0" result="BackgroundImageFix"/>
<feColorMatrix in="SourceAlpha" type="matrix" values="0 0 0 0 0 0 0 0 0 0 0 0 0 0 0 0 0 0 127 0" result="hardAlpha"/>
<feMorphology radius="1" operator="dilate" in="SourceAlpha" result="effect1_dropShadow_4419_62606"/>
<feOffset/>
<feComposite in2="hardAlpha" operator="out"/>
<feColorMatrix type="matrix" values="0 0 0 0 0.215686 0 0 0 0 0.215686 0 0 0 0 0.215686 0 0 0 0.6 0"/>
<feBlend mode="normal" in2="BackgroundImageFix" result="effect1_dropShadow_4419_62606"/>
<feColorMatrix in="SourceAlpha" type="matrix" values="0 0 0 0 0 0 0 0 0 0 0 0 0 0 0 0 0 0 127 0" result="hardAlpha"/>
<feOffset dy="2"/>
<feGaussianBlur stdDeviation="2"/>
<feComposite in2="hardAlpha" operator="out"/>
<feColorMatrix type="matrix" values="0 0 0 0 0.215686 0 0 0 0 0.215686 0 0 0 0 0.215686 0 0 0 0.02 0"/>
<feBlend mode="normal" in2="effect1_dropShadow_4419_62606" result="effect2_dropShadow_4419_62606"/>
<feBlend mode="normal" in="SourceGraphic" in2="effect2_dropShadow_4419_62606" result="shape"/>
</filter>
<filter id="filter2_dd_4419_62606" x="-252" y="382" width="272" height="88" filterUnits="userSpaceOnUse" color-interpolation-filters="sRGB">
<feFlood flood-opacity="0" result="BackgroundImageFix"/>
<feColorMatrix in="SourceAlpha" type="matrix" values="0 0 0 0 0 0 0 0 0 0 0 0 0 0 0 0 0 0 127 0" result="hardAlpha"/>
<feMorphology radius="1" operator="dilate" in="SourceAlpha" result="effect1_dropShadow_4419_62606"/>
<feOffset/>
<feComposite in2="hardAlpha" operator="out"/>
<feColorMatrix type="matrix" values="0 0 0 0 0.215686 0 0 0 0 0.215686 0 0 0 0 0.215686 0 0 0 0.6 0"/>
<feBlend mode="normal" in2="BackgroundImageFix" result="effect1_dropShadow_4419_62606"/>
<feColorMatrix in="SourceAlpha" type="matrix" values="0 0 0 0 0 0 0 0 0 0 0 0 0 0 0 0 0 0 127 0" result="hardAlpha"/>
<feOffset dy="2"/>
<feGaussianBlur stdDeviation="2"/>
<feComposite in2="hardAlpha" operator="out"/>
<feColorMatrix type="matrix" values="0 0 0 0 0.215686 0 0 0 0 0.215686 0 0 0 0 0.215686 0 0 0 0.02 0"/>
<feBlend mode="normal" in2="effect1_dropShadow_4419_62606" result="effect2_dropShadow_4419_62606"/>
<feBlend mode="normal" in="SourceGraphic" in2="effect2_dropShadow_4419_62606" result="shape"/>
</filter>
<filter id="filter3_dd_4419_62606" x="36" y="106" width="272" height="188" filterUnits="userSpaceOnUse" color-interpolation-filters="sRGB">
<feFlood flood-opacity="0" result="BackgroundImageFix"/>
<feColorMatrix in="SourceAlpha" type="matrix" values="0 0 0 0 0 0 0 0 0 0 0 0 0 0 0 0 0 0 127 0" result="hardAlpha"/>
<feMorphology radius="1" operator="dilate" in="SourceAlpha" result="effect1_dropShadow_4419_62606"/>
<feOffset/>
<feComposite in2="hardAlpha" operator="out"/>
<feColorMatrix type="matrix" values="0 0 0 0 0.215686 0 0 0 0 0.215686 0 0 0 0 0.215686 0 0 0 0.6 0"/>
<feBlend mode="normal" in2="BackgroundImageFix" result="effect1_dropShadow_4419_62606"/>
<feColorMatrix in="SourceAlpha" type="matrix" values="0 0 0 0 0 0 0 0 0 0 0 0 0 0 0 0 0 0 127 0" result="hardAlpha"/>
<feOffset dy="2"/>
<feGaussianBlur stdDeviation="2"/>
<feComposite in2="hardAlpha" operator="out"/>
<feColorMatrix type="matrix" values="0 0 0 0 0.215686 0 0 0 0 0.215686 0 0 0 0 0.215686 0 0 0 0.02 0"/>
<feBlend mode="normal" in2="effect1_dropShadow_4419_62606" result="effect2_dropShadow_4419_62606"/>
<feBlend mode="normal" in="SourceGraphic" in2="effect2_dropShadow_4419_62606" result="shape"/>
</filter>
<filter id="filter4_dd_4419_62606" x="36" y="294" width="272" height="188" filterUnits="userSpaceOnUse" color-interpolation-filters="sRGB">
<feFlood flood-opacity="0" result="BackgroundImageFix"/>
<feColorMatrix in="SourceAlpha" type="matrix" values="0 0 0 0 0 0 0 0 0 0 0 0 0 0 0 0 0 0 127 0" result="hardAlpha"/>
<feMorphology radius="1" operator="dilate" in="SourceAlpha" result="effect1_dropShadow_4419_62606"/>
<feOffset/>
<feComposite in2="hardAlpha" operator="out"/>
<feColorMatrix type="matrix" values="0 0 0 0 0.215686 0 0 0 0 0.215686 0 0 0 0 0.215686 0 0 0 0.6 0"/>
<feBlend mode="normal" in2="BackgroundImageFix" result="effect1_dropShadow_4419_62606"/>
<feColorMatrix in="SourceAlpha" type="matrix" values="0 0 0 0 0 0 0 0 0 0 0 0 0 0 0 0 0 0 127 0" result="hardAlpha"/>
<feOffset dy="2"/>
<feGaussianBlur stdDeviation="2"/>
<feComposite in2="hardAlpha" operator="out"/>
<feColorMatrix type="matrix" values="0 0 0 0 0.215686 0 0 0 0 0.215686 0 0 0 0 0.215686 0 0 0 0.02 0"/>
<feBlend mode="normal" in2="effect1_dropShadow_4419_62606" result="effect2_dropShadow_4419_62606"/>
<feBlend mode="normal" in="SourceGraphic" in2="effect2_dropShadow_4419_62606" result="shape"/>
</filter>
<filter id="filter5_d_4419_62606" x="206.992" y="82" width="346" height="262" filterUnits="userSpaceOnUse" color-interpolation-filters="sRGB">
<feFlood flood-opacity="0" result="BackgroundImageFix"/>
<feColorMatrix in="SourceAlpha" type="matrix" values="0 0 0 0 0 0 0 0 0 0 0 0 0 0 0 0 0 0 127 0" result="hardAlpha"/>
<feMorphology radius="40" operator="dilate" in="SourceAlpha" result="effect1_dropShadow_4419_62606"/>
<feOffset/>
<feComposite in2="hardAlpha" operator="out"/>
<feColorMatrix type="matrix" values="0 0 0 0 0.215686 0 0 0 0 0.215686 0 0 0 0 0.215686 0 0 0 0.4 0"/>
<feBlend mode="normal" in2="BackgroundImageFix" result="effect1_dropShadow_4419_62606"/>
<feBlend mode="normal" in="SourceGraphic" in2="effect1_dropShadow_4419_62606" result="shape"/>
</filter>
<clipPath id="bgblur_11_4419_62606_clip_path" transform="translate(-206.992 -82)"><path d="M247.992 133C247.992 127.477 252.469 123 257.992 123H501.993C507.516 123 511.993 127.477 511.993 133V293C511.993 298.523 507.516 303 501.993 303H257.992C252.469 303 247.992 298.523 247.992 293V133Z"/>
</clipPath><linearGradient id="paint0_linear_4419_62606" x1="-116" y1="100" x2="-116" y2="568" gradientUnits="userSpaceOnUse">
<stop stop-color="#F5F4F6"/>
</linearGradient>
<linearGradient id="paint1_linear_4419_62606" x1="172" y1="100" x2="172" y2="568" gradientUnits="userSpaceOnUse">
<stop stop-color="#F5F4F6"/>
</linearGradient>
<linearGradient id="paint2_linear_4419_62606" x1="460" y1="100" x2="460" y2="568" gradientUnits="userSpaceOnUse">
<stop stop-color="#F5F4F6"/>
</linearGradient>
<clipPath id="clip0_4419_62606">
<rect width="664" height="664" fill="white"/>
</clipPath>
<clipPath id="clip1_4419_62606">
<rect width="856.001" height="504" fill="white" transform="translate(-256 64)"/>
</clipPath>
<clipPath id="clip2_4419_62606">
<rect x="-256" y="64" width="280" height="504" rx="8" fill="white"/>
</clipPath>
<clipPath id="clip3_4419_62606">
<path d="M-248 118C-248 112.477 -243.523 108 -238 108H5.99999C11.5228 108 16 112.477 16 118V218C16 223.523 11.5228 228 6 228H-238C-243.523 228 -248 223.523 -248 218V118Z" fill="white"/>
</clipPath>
<clipPath id="clip4_4419_62606">
<path d="M-248 246C-248 240.477 -243.523 236 -238 236H5.99999C11.5228 236 16 240.477 16 246V366C16 371.523 11.5228 376 6 376H-238C-243.523 376 -248 371.523 -248 366V246Z" fill="white"/>
</clipPath>
<clipPath id="clip5_4419_62606">
<path d="M-248 394C-248 388.477 -243.523 384 -238 384H5.99999C11.5228 384 16 388.477 16 394V454C16 459.523 11.5228 464 6 464H-238C-243.523 464 -248 459.523 -248 454V394Z" fill="white"/>
</clipPath>
<clipPath id="clip6_4419_62606">
<rect x="32" y="64" width="280" height="504" rx="8" fill="white"/>
</clipPath>
<clipPath id="clip7_4419_62606">
<rect x="32" y="100" width="280" height="468" fill="white"/>
</clipPath>
<clipPath id="clip8_4419_62606">
<rect x="320" y="64" width="280" height="504" rx="8" fill="white"/>
</clipPath>
<clipPath id="clip10_4419_62606">
<path d="M247.992 133C247.992 127.477 252.469 123 257.992 123H501.993C507.516 123 511.993 127.477 511.993 133V293C511.993 298.523 507.516 303 501.993 303H257.992C252.469 303 247.992 298.523 247.992 293V133Z" fill="white"/>
</clipPath>
<clipPath id="clip12_4419_62606">
<rect width="240" height="22" fill="white" transform="translate(259.992 135)"/>
</clipPath>
<clipPath id="clip13_4419_62606">
<rect width="240" height="15" fill="white" transform="translate(259.992 167)"/>
</clipPath>
<clipPath id="clip14_4419_62606">
<rect width="240" height="15" fill="white" transform="translate(259.992 194)"/>
</clipPath>
<clipPath id="clip15_4419_62606">
<rect width="240" height="15" fill="white" transform="translate(259.992 221)"/>
</clipPath>
<clipPath id="clip16_4419_62606">
<rect width="240" height="15" fill="white" transform="translate(259.992 244)"/>
</clipPath>
<pattern id="pattern0_4419_62606" patternUnits="userSpaceOnUse" patternTransform="matrix(16 0 0 16 320 100)" preserveAspectRatio="none" viewBox="0 0 40 40" width="1" height="1">
<g id="pattern0_4419_62606_inner">
<g clip-path="url(#clip9_4419_62606)">
<line x1="-4.35355" y1="43.6464" x2="43.6465" y2="-4.35356" stroke="#C7C7C7"/>
<line x1="15.6464" y1="63.6464" x2="63.6465" y2="15.6464" stroke="#C7C7C7"/>
<line x1="-24.3536" y1="23.6464" x2="23.6464" y2="-24.3536" stroke="#C7C7C7"/>
</g>
</g>
</pattern><clipPath id="clip9_4419_62606">
<rect width="40" height="40" fill="white"/>
</clipPath>
</defs>
</svg>
